<svg width="30" height="30" viewBox="0 0 30 30" fill="none" xmlns="http://www.w3.org/2000/svg">
<g clip-path="url(#clip0_1_8)">
<path fill-rule="evenodd" clip-rule="evenodd" d="M15.275 3.8C13.0106 3.8 11.175 5.63563 11.175 7.9V10.75H19.375V7.9C19.375 5.63563 17.5394 3.8 15.275 3.8ZM21.175 10.75V7.9C21.175 4.64152 18.5335 2 15.275 2C12.0165 2 9.375 4.64152 9.375 7.9V10.75H6.9C5.85066 10.75 5 11.6007 5 12.65V26.9C5 27.9493 5.85066 28.8 6.9 28.8H23.65C24.6993 28.8 25.55 27.9493 25.55 26.9V12.65C25.55 11.6007 24.6993 10.75 23.65 10.75H21.175ZM6.9 12.55C6.84477 12.55 6.8 12.5948 6.8 12.65V26.9C6.8 26.9552 6.84477 27 6.9 27H23.65C23.7052 27 23.75 26.9552 23.75 26.9V12.65C23.75 12.5948 23.7052 12.55 23.65 12.55H20.275H10.275H6.9ZM11.525 15.4C11.525 16.0904 10.9654 16.65 10.275 16.65C9.58464 16.65 9.025 16.0904 9.025 15.4C9.025 14.7096 9.58464 14.15 10.275 14.15C10.9654 14.15 11.525 14.7096 11.525 15.4ZM20.275 16.65C20.9654 16.65 21.525 16.0904 21.525 15.4C21.525 14.7096 20.9654 14.15 20.275 14.15C19.5846 14.15 19.025 14.7096 19.025 15.4C19.025 16.0904 19.5846 16.65 20.275 16.65Z" fill="#1E1E1E"/>
<circle cx="22.5" cy="11.5" r="7.5" fill="#93B8CB"/>
<path d="M22.088 16V7.96L22.472 8.368H20.108V7.6H22.952V16H22.088Z" fill="white"/>
</g>
<defs>
<clipPath id="clip0_1_8">
<rect width="30" height="30" fill="white"/>
</clipPath>
</defs>
</svg>
