<svg width="272" height="272" viewBox="0 0 272 272" fill="none" xmlns="http://www.w3.org/2000/svg">
<path d="M113.397 48.2595C117.317 42.13 125.747 40.8719 131.286 45.5895L133.745 47.6836C137.81 51.1454 143.673 51.5052 148.131 48.5663L150.828 46.7885C156.902 42.7835 165.115 45.0628 168.256 51.6256L169.651 54.5389C171.957 59.3547 177.166 62.0681 182.434 61.1964L185.621 60.669C192.799 59.4811 199.374 64.9036 199.575 72.1769L199.664 75.4055C199.812 80.7427 203.468 85.3406 208.634 86.6867L211.76 87.5011C218.801 89.3356 222.602 96.9638 219.827 103.69L218.595 106.676C216.559 111.611 218.029 117.299 222.201 120.63L224.726 122.645C230.412 127.185 230.782 135.7 225.511 140.716L223.171 142.942C219.304 146.623 218.333 152.417 220.79 157.157L222.276 160.025C225.624 166.485 222.499 174.414 215.644 176.852L212.6 177.935C207.57 179.724 204.327 184.622 204.643 189.952L204.835 193.176C205.266 200.439 199.186 206.412 191.931 205.851L188.711 205.602C183.387 205.191 178.433 208.346 176.554 213.344L175.417 216.367C172.857 223.178 164.873 226.161 158.474 222.698L155.633 221.161C150.937 218.62 145.128 219.487 141.378 223.289L139.11 225.588C134.001 230.769 125.494 230.247 121.057 224.481L119.087 221.921C115.831 217.69 110.17 216.119 105.199 218.067L102.192 219.245C95.4172 221.899 87.8581 217.963 86.1495 210.89L85.391 207.75C84.1373 202.56 79.6054 198.823 74.2717 198.581L71.0451 198.434C63.7766 198.103 58.4722 191.432 59.788 184.276L60.3721 181.1C61.3377 175.848 58.7177 170.591 53.9438 168.2L51.0558 166.754C44.5501 163.495 42.4178 155.243 46.5304 149.241L48.3561 146.577C51.374 142.172 51.1189 136.304 47.7302 132.178L45.6803 129.682C41.0623 124.059 42.4706 115.653 48.669 111.843L51.4206 110.151C55.969 107.355 58.123 101.89 56.7055 96.7425L55.8479 93.6285C53.9162 86.6136 58.6216 79.5074 65.8341 78.5474L69.0358 78.1213C74.3283 77.4169 78.5188 73.3005 79.3175 68.0214L79.8007 64.8278C80.8892 57.6336 88.0782 53.0557 95.0576 55.1123L98.1558 56.0252C103.277 57.5344 108.78 55.4783 111.657 50.9805L113.397 48.2595Z" fill="#93B8CB"/>
<path d="M120.128 108.66C119.533 108.82 118.969 108.879 118.437 108.84C117.91 108.791 117.453 108.644 117.064 108.4C116.684 108.154 116.404 107.807 116.226 107.358C116.2 107.29 116.204 107.227 116.237 107.168C116.279 107.107 116.335 107.068 116.404 107.049L117.679 106.707C117.772 106.683 117.842 106.68 117.889 106.701C117.943 106.719 118.004 106.761 118.071 106.826C118.207 107.022 118.405 107.159 118.666 107.238C118.935 107.315 119.279 107.298 119.696 107.186C120.19 107.053 120.535 106.795 120.731 106.412C120.924 106.02 120.945 105.542 120.794 104.978L120.738 104.77L118.339 105.413C118.254 105.435 118.177 105.427 118.108 105.387C118.038 105.34 117.991 105.274 117.968 105.189L117.757 104.401C117.734 104.316 117.743 104.239 117.782 104.17C117.82 104.094 117.881 104.044 117.966 104.022L120.365 103.379L120.313 103.182C120.149 102.571 119.89 102.16 119.535 101.949C119.186 101.728 118.76 101.684 118.258 101.819C117.841 101.931 117.536 102.091 117.343 102.3C117.158 102.507 117.062 102.719 117.054 102.937C117.036 103.024 117.012 103.089 116.982 103.13C116.951 103.171 116.89 103.204 116.797 103.229L115.51 103.574C115.441 103.593 115.373 103.586 115.306 103.554C115.24 103.522 115.201 103.47 115.19 103.399C115.124 102.903 115.194 102.454 115.4 102.051C115.613 101.637 115.933 101.287 116.361 100.998C116.794 100.7 117.305 100.472 117.892 100.314C118.549 100.138 119.164 100.102 119.738 100.205C120.311 100.3 120.809 100.552 121.233 100.96C121.657 101.368 121.989 101.958 122.229 102.73C122.297 102.952 122.353 103.148 122.399 103.318C122.442 103.481 122.487 103.647 122.533 103.817C122.576 103.979 122.624 104.173 122.676 104.399C122.857 105.196 122.866 105.881 122.705 106.454C122.549 107.017 122.248 107.483 121.8 107.852C121.358 108.211 120.8 108.48 120.128 108.66ZM127.06 106.678C126.975 106.701 126.898 106.693 126.83 106.653C126.761 106.614 126.716 106.551 126.693 106.466L125.028 100.253L122.919 100.819C122.841 100.839 122.768 100.83 122.7 100.79C122.631 100.751 122.587 100.692 122.566 100.615L122.286 99.5719C122.263 99.4868 122.272 99.4101 122.312 99.3415C122.351 99.2729 122.41 99.2282 122.487 99.2075L128.561 97.5801C128.646 97.5573 128.722 97.5657 128.791 97.6053C128.86 97.6449 128.905 97.7072 128.928 97.7922L129.208 98.8354C129.228 98.9127 129.219 98.9856 129.179 99.0542C129.14 99.1228 129.077 99.1685 128.992 99.1912L126.894 99.7534L128.559 105.966C128.582 106.051 128.573 106.128 128.534 106.197C128.494 106.265 128.432 106.311 128.347 106.334L127.06 106.678ZM135.393 104.57C134.69 104.758 134.052 104.805 133.48 104.71C132.908 104.615 132.416 104.374 132.006 103.987C131.594 103.592 131.281 103.042 131.067 102.337C130.971 102.007 130.879 101.68 130.792 101.355C130.703 101.023 130.617 100.686 130.533 100.344C130.37 99.642 130.368 99.0172 130.528 98.4692C130.693 97.9114 130.999 97.4444 131.445 97.0682C131.898 96.6899 132.469 96.4086 133.157 96.2244C133.837 96.0421 134.464 96.0025 135.038 96.1054C135.62 96.2062 136.122 96.4568 136.544 96.8572C136.964 97.2499 137.275 97.7919 137.476 98.4833C137.583 98.8191 137.681 99.1532 137.77 99.4855C137.857 99.81 137.937 100.141 138.011 100.477C138.178 101.194 138.182 101.827 138.022 102.375C137.86 102.915 137.556 103.369 137.108 103.738C136.66 104.106 136.088 104.384 135.393 104.57ZM134.992 103.075C135.44 102.955 135.771 102.721 135.985 102.374C136.204 102.017 136.24 101.535 136.094 100.928C136.018 100.584 135.941 100.265 135.863 99.9717C135.782 99.6703 135.689 99.3555 135.585 99.0274C135.469 98.6276 135.308 98.3189 135.101 98.1012C134.893 97.8834 134.658 97.7477 134.395 97.6939C134.138 97.6303 133.859 97.6389 133.557 97.7196C133.256 97.8004 133.006 97.9336 132.807 98.1194C132.606 98.2974 132.471 98.5326 132.4 98.8248C132.337 99.115 132.351 99.4631 132.444 99.8691C132.525 100.203 132.606 100.521 132.687 100.823C132.765 101.116 132.854 101.432 132.953 101.77C133.138 102.367 133.41 102.766 133.771 102.967C134.129 103.161 134.536 103.197 134.992 103.075ZM94.5637 148.515C94.4072 148.557 94.2629 148.539 94.1306 148.463C93.9937 148.369 93.9066 148.253 93.8693 148.114C93.846 148.027 93.8337 147.946 93.8325 147.872L95.5462 129.439C95.5471 129.234 95.6071 129.041 95.7263 128.86C95.8455 128.679 96.0442 128.551 96.3224 128.477L99.6607 127.582C99.9389 127.508 100.175 127.519 100.369 127.616C100.562 127.713 100.711 127.851 100.814 128.028L111.515 143.134C111.551 143.199 111.58 143.275 111.604 143.362C111.641 143.501 111.624 143.645 111.552 143.795C111.476 143.927 111.359 144.014 111.203 144.056L108.49 144.783C108.23 144.853 108.022 144.843 107.868 144.754C107.713 144.665 107.605 144.573 107.542 144.478L105.638 141.858L98.2835 143.828L97.9448 147.05C97.9379 147.163 97.89 147.297 97.8009 147.452C97.7118 147.606 97.5368 147.718 97.276 147.788L94.5637 148.515ZM98.347 140.205L103.746 138.759L99.0468 131.968L98.347 140.205ZM114.648 143.133C114.457 143.184 114.284 143.165 114.13 143.076C113.975 142.987 113.873 142.847 113.821 142.656L109.279 125.704C109.228 125.513 109.247 125.34 109.336 125.185C109.425 125.031 109.565 124.928 109.756 124.877L112.599 124.115C112.79 124.064 112.963 124.083 113.117 124.172C113.272 124.261 113.374 124.401 113.426 124.593L115.173 131.113L117.103 130.596L119.356 122.836C119.406 122.674 119.497 122.528 119.63 122.399C119.759 122.253 119.945 122.147 120.188 122.082L123.344 121.236C123.518 121.19 123.665 121.216 123.784 121.314C123.916 121.39 124.001 121.498 124.038 121.637C124.066 121.742 124.06 121.855 124.018 121.978L121.265 131.213L128.937 138.354C128.99 138.414 129.033 138.505 129.066 138.627C129.113 138.801 129.091 138.965 129.002 139.119C128.926 139.251 128.809 139.339 128.653 139.38L125.393 140.254C125.132 140.324 124.927 140.323 124.777 140.251C124.623 140.162 124.499 140.083 124.406 140.015L118.251 134.257L116.165 134.816L117.968 141.545C118.019 141.736 118 141.909 117.911 142.063C117.822 142.217 117.682 142.32 117.491 142.371L114.648 143.133ZM133.284 138.14C133.11 138.186 132.946 138.165 132.792 138.076C132.637 137.987 132.535 137.847 132.483 137.655L131.861 135.334C131.81 135.143 131.829 134.97 131.918 134.816C132.007 134.662 132.139 134.561 132.313 134.514L133.304 134.249C133.79 134.118 134.182 133.911 134.479 133.627C134.77 133.325 135 132.928 135.166 132.436C135.345 131.922 135.492 131.287 135.605 130.529L137.504 118.001C137.527 117.809 137.587 117.653 137.686 117.533C137.801 117.409 137.946 117.324 138.12 117.277L141.015 116.501C141.171 116.459 141.318 116.485 141.455 116.579C141.605 116.651 141.698 116.756 141.736 116.895C141.754 116.965 141.758 117.048 141.746 117.144C141.747 117.218 141.74 117.295 141.724 117.374L139.708 130.716C139.552 131.801 139.365 132.737 139.147 133.522C138.928 134.307 138.64 134.971 138.283 135.514C137.925 136.057 137.45 136.511 136.858 136.874C136.266 137.238 135.509 137.543 134.588 137.79L133.284 138.14ZM135.933 132.482L125.558 121.51C125.504 121.449 125.466 121.376 125.442 121.289C125.405 121.15 125.431 121.003 125.52 120.849C125.609 120.695 125.732 120.596 125.889 120.554L128.94 119.737C129.114 119.69 129.265 119.696 129.392 119.755C129.537 119.81 129.676 119.912 129.81 120.063L136.981 127.841L135.933 132.482ZM160.532 130.839C160.341 130.89 160.168 130.871 160.014 130.782C159.859 130.693 159.757 130.552 159.705 130.361L155.981 116.461L150.739 117.865L151.5 120.708C152.064 122.812 152.44 124.63 152.627 126.164C152.81 127.681 152.772 128.967 152.515 130.024C152.258 131.08 151.746 131.953 150.981 132.643C150.228 133.311 149.178 133.844 147.831 134.242C147.657 134.288 147.484 134.269 147.313 134.185C147.154 134.078 147.049 133.93 146.997 133.738L146.375 131.417C146.278 131.052 146.419 130.781 146.801 130.604C147.282 130.382 147.642 130.025 147.883 129.532C148.141 129.034 148.287 128.399 148.322 127.625C148.37 126.83 148.309 125.905 148.138 124.851C147.963 123.78 147.698 122.584 147.344 121.262L145.905 115.89C145.853 115.699 145.872 115.526 145.961 115.372C146.051 115.217 146.182 115.117 146.356 115.07L158.483 111.821C158.674 111.77 158.847 111.788 159.001 111.878C159.156 111.967 159.259 112.107 159.31 112.298L163.852 129.25C163.903 129.441 163.884 129.614 163.795 129.768C163.706 129.923 163.566 130.026 163.375 130.077L160.532 130.839ZM166.819 129.154C166.662 129.196 166.518 129.179 166.385 129.102C166.249 129.009 166.161 128.892 166.124 128.753C166.101 128.666 166.089 128.586 166.087 128.511L167.801 110.079C167.802 109.874 167.862 109.68 167.981 109.499C168.1 109.318 168.299 109.191 168.577 109.116L171.916 108.222C172.194 108.147 172.43 108.158 172.623 108.256C172.817 108.353 172.966 108.49 173.069 108.667L183.77 123.773C183.806 123.838 183.835 123.914 183.859 124.001C183.896 124.14 183.879 124.285 183.807 124.434C183.731 124.567 183.614 124.654 183.458 124.696L180.745 125.422C180.484 125.492 180.277 125.483 180.123 125.394C179.968 125.304 179.86 125.212 179.797 125.117L177.893 122.497L170.538 124.468L170.2 127.689C170.193 127.803 170.145 127.937 170.056 128.091C169.967 128.245 169.792 128.357 169.531 128.427L166.819 129.154ZM170.602 120.845L176 119.398L171.302 112.607L170.602 120.845ZM130.68 172.246C129.428 172.581 128.291 172.718 127.268 172.657C126.241 172.578 125.326 172.329 124.524 171.911C123.718 171.474 123.029 170.886 122.458 170.144C121.882 169.385 121.413 168.505 121.051 167.502C120.996 167.368 120.95 167.231 120.913 167.092C120.876 166.953 120.841 166.822 120.808 166.701L117.418 167.609L119.221 174.338C119.272 174.529 119.253 174.702 119.164 174.856C119.075 175.011 118.935 175.113 118.744 175.165L115.901 175.926C115.71 175.978 115.537 175.959 115.382 175.869C115.228 175.78 115.125 175.64 115.074 175.449L110.532 158.497C110.481 158.306 110.5 158.133 110.589 157.979C110.678 157.824 110.818 157.722 111.009 157.67L113.852 156.909C114.043 156.857 114.216 156.876 114.37 156.965C114.525 157.054 114.627 157.195 114.679 157.386L116.426 163.906L119.816 162.997C119.788 162.893 119.758 162.78 119.725 162.658C119.705 162.515 119.688 162.38 119.672 162.253C119.499 161.256 119.476 160.303 119.605 159.392C119.751 158.477 120.066 157.638 120.551 156.874C121.032 156.094 121.688 155.414 122.521 154.837C123.371 154.255 124.414 153.799 125.648 153.468C126.935 153.123 128.103 152.997 129.152 153.088C130.202 153.18 131.134 153.461 131.95 153.932C132.783 154.398 133.484 155.03 134.052 155.829C134.615 156.609 135.062 157.515 135.394 158.544C135.634 159.299 135.854 160.051 136.054 160.799C136.25 161.529 136.43 162.273 136.596 163.029C136.833 164.121 136.894 165.149 136.779 166.111C136.681 167.069 136.395 167.947 135.919 168.745C135.444 169.544 134.774 170.245 133.911 170.849C133.044 171.435 131.966 171.901 130.68 172.246ZM129.778 168.881C130.456 168.7 131.021 168.409 131.473 168.008C131.925 167.607 132.224 167.089 132.37 166.454C132.53 165.796 132.505 165.011 132.298 164.097C132.128 163.323 131.949 162.588 131.763 161.893C131.572 161.18 131.359 160.454 131.124 159.716C130.847 158.821 130.477 158.137 130.015 157.665C129.566 157.17 129.046 156.863 128.454 156.741C127.863 156.62 127.228 156.651 126.55 156.832C125.889 157.01 125.333 157.298 124.881 157.699C124.429 158.099 124.124 158.629 123.965 159.286C123.801 159.926 123.823 160.703 124.03 161.617C124.213 162.369 124.4 163.101 124.591 163.814C124.777 164.51 124.982 165.238 125.204 165.998C125.481 166.893 125.844 167.588 126.294 168.082C126.756 168.555 127.283 168.851 127.874 168.972C128.465 169.093 129.1 169.063 129.778 168.881ZM142.337 168.843C142.146 168.894 141.973 168.875 141.819 168.786C141.665 168.697 141.562 168.557 141.511 168.365L136.968 151.413C136.917 151.222 136.936 151.049 137.025 150.895C137.114 150.741 137.254 150.638 137.446 150.587L144.566 148.679C145.974 148.301 147.249 148.193 148.391 148.353C149.551 148.508 150.537 148.952 151.348 149.685C152.172 150.396 152.759 151.403 153.108 152.707C153.462 154.028 153.46 155.203 153.102 156.231C152.756 157.236 152.118 158.088 151.187 158.785C150.273 159.477 149.112 160.011 147.703 160.389L144.208 161.325L145.788 167.219C145.839 167.411 145.82 167.583 145.731 167.738C145.642 167.892 145.502 167.995 145.31 168.046L142.337 168.843ZM143.264 158.112L146.706 157.19C147.593 156.952 148.222 156.551 148.592 155.986C148.98 155.416 149.057 154.696 148.824 153.827C148.619 153.062 148.225 152.497 147.643 152.131C147.078 151.761 146.3 151.708 145.309 151.974L141.866 152.896L143.264 158.112ZM158.011 164.643C157.855 164.685 157.71 164.668 157.578 164.591C157.441 164.497 157.354 164.381 157.317 164.242C157.294 164.155 157.281 164.074 157.28 164L158.994 145.568C158.995 145.362 159.055 145.169 159.174 144.988C159.293 144.807 159.492 144.679 159.77 144.605L163.108 143.71C163.386 143.636 163.622 143.647 163.816 143.744C164.01 143.841 164.158 143.979 164.262 144.156L174.962 159.262C174.998 159.327 175.028 159.403 175.051 159.49C175.088 159.629 175.071 159.773 175 159.923C174.923 160.055 174.807 160.142 174.65 160.184L171.938 160.911C171.677 160.981 171.47 160.971 171.315 160.882C171.161 160.793 171.052 160.701 170.99 160.606L169.086 157.986L161.731 159.956L161.392 163.178C161.385 163.291 161.338 163.425 161.248 163.58C161.159 163.734 160.984 163.846 160.724 163.916L158.011 164.643ZM161.795 156.333L167.193 154.887L162.494 148.096L161.795 156.333Z" fill="white"/>
</svg>
